# xmcd
#
# Track frame offsets:
#	150
#	18722
#	30463
#	42133
#	53264
#	66206
#	84397
#	98327
#	111268
#
# Disc length: 1658 seconds
#
# Revision: 0
# Processed by: cddbd v1.5PL3 Copyright (c) Steve Scherf et al.
# Submitted via: dBpowerAMP V4.0
#
DISCID=60067809
DTITLE=Ray Price - For the Good Times
DYEAR=1900
DGENRE=Country
TTITLE0=For The Good Times
TTITLE1=Crazy Arms
TTITLE2=Making The World Go Away
TTITLE3=Burning Memories
TTITLE4=Release Me
TTITLE5=I Wont Mention It Again
TTITLE6=Heartaches By The Numbers
TTITLE7=She Wears My Ring
TTITLE8=Take Me As I Am Or Let Me Go
EXTD=
EXTT0=
EXTT1=
EXTT2=
EXTT3=
EXTT4=
EXTT5=
EXTT6=
EXTT7=
EXTT8=
PLAYORDER=
